<svg width="100" height="100" fill="none" xmlns="http://www.w3.org/2000/svg"><g clip-path="url(#clip0_130_4)"><path d="M90 40a10 10 0 00-6.34 2.26L57.79 16.41a10 10 0 10-16.84-2.23l-22.65 10-.13.1a10 10 0 10-1 12.87l7.72 13.06-7.75 12.81a10.14 10.14 0 101.28 1.58 1.24 1.24 0 00.28-.28l7.34-12.16 17.81 30.12A10 10 0 1057.95 84s.07 0 .09-.06l25.34-26.41A10 10 0 1090 40zM10 78a8 8 0 110-16 8 8 0 010 16zm72.22-34.37a10 10 0 00-2.21 5.34l-20.18-2.48c.079-.503.122-1.01.13-1.52a10 10 0 00-18.62-5.06l-6.16-3.19 10.63-17.58a.356.356 0 010-.07 10 10 0 0010.48-1.33l25.93 25.89zM50 53a8 8 0 118-8 8.614 8.614 0 01-.15 1.53 1.001 1.001 0 00-.43.69.93.93 0 00.09.5A8 8 0 0150 53zm0-51a8 8 0 110 16 8 8 0 010-16zm-8.25 13.92l.13-.1c.63.883 1.4 1.657 2.28 2.29l-10.7 17.7-13-6.72a1 1 0 00-.51-.09 10.2 10.2 0 00-.84-3.13l22.64-9.95zM10 38a8 8 0 110-16 8 8 0 010 16zm8.65-2.24a.809.809 0 00-.28-.3 9.9 9.9 0 001.56-4.37l12.47 6.46-6.42 10.61-7.33-12.4zm8.49 14.36l7-11.65 6.36 3.29A10 10 0 0049.01 55v25a10.09 10.09 0 00-3.55 1.05L27.14 50.12zM50 98a8 8 0 110-15.999A8 8 0 0150 98zm6.61-15.49A9.94 9.94 0 0051 80.05V55a10 10 0 008.38-6.48l20.5 2.52h.18a9.9 9.9 0 002 5s-.07 0-.09.06L56.61 82.51zM90 58a8 8 0 110-15.998A8 8 0 0190 58z" fill="url(#paint0_linear_130_4)"/></g><defs><linearGradient id="paint0_linear_130_4" x1="22" y1="11.52" x2="67.99" y2="91.16" gradientUnits="userSpaceOnUse"><stop stop-color="#26E8D2"/><stop offset="1" stop-color="#4E32E7"/></linearGradient><clipPath id="clip0_130_4"><path fill="#fff" d="M0 0h100v100H0z"/></clipPath></defs></svg>