<svg width="100" height="100" fill="none" xmlns="http://www.w3.org/2000/svg"><path d="M65 74H35a6 6 0 000 12h30a6 6 0 000-12zm0 10H35a4 4 0 110-8h30a4 4 0 110 8zm35-33.92v-2.66c0-.84-.1-1.67-.19-2.5v-.4c-.07-.68-.15-1.36-.26-2-.11-.64-.2-1.22-.32-1.83l-.09-.52A50 50 0 0051.68 0H49A50 50 0 000 49v2a49.61 49.61 0 0011.39 30.8c.51.62 1 1.23 1.57 1.82a50 50 0 0074.07-.06c.19-.2.36-.41.54-.62.36-.42.73-.83 1.08-1.26.21-.25.4-.51.61-.77.21-.26.62-.78.91-1.18l.61-.86c.28-.39.55-.78.82-1.18.27-.4.39-.61.59-.92.2-.31.5-.78.74-1.18.24-.4.37-.65.55-1 .18-.35.46-.8.67-1.21.21-.41.35-.67.52-1 .17-.33.4-.81.6-1.23.2-.42.32-.69.47-1l.54-1.27.42-1.06c.16-.43.32-.87.47-1.3a56.71 56.71 0 00.78-2.42c.13-.44.21-.74.31-1.12.1-.38.24-.91.34-1.37.1-.46.18-.74.26-1.12.08-.38.19-.94.28-1.41.09-.47.14-.75.2-1.12.06-.37.14-1 .2-1.48s.1-.73.14-1.1c.06-.52.09-1.05.13-1.58 0-.34.06-.69.08-1 0-.58 0-1.16.05-1.74v-.07c.06-.34.06-.62.06-.91zm-14.7 32.4l-4.25-4.23A41.84 41.84 0 0092 51h6a48 48 0 01-12.67 31.48h-.03zM47 8.11A41.75 41.75 0 0021 19.6l-4.22-4.22A48 48 0 0138 3.53h.13c.7-.18 1.41-.34 2.12-.49l.44-.08c.63-.13 1.26-.24 1.9-.34l.79-.11L45 2.3l1.26-.1c.41 0 .81-.07 1.22-.09.41-.02 1 0 1.54 0v6c-.7-.06-1.39-.05-2.02 0zM3.53 62a.83.83 0 000-.15c-.17-.68-.33-1.37-.47-2.06 0-.16-.07-.33-.1-.49-.12-.59-.23-1.19-.32-1.79l-.12-.82c-.07-.51-.14-1-.19-1.53-.05-.53-.07-.73-.1-1.1-.03-.37-.08-.87-.1-1.32-.02-.45 0-.85 0-1.28v-.5h6a41.64 41.64 0 0010.92 27.23l-4.25 4.25A48.14 48.14 0 013.53 62zm4.53-14.24v1.2h-6v-1.2c0-.37 0-.73.07-1.1A47.85 47.85 0 0115.38 16.8L19.6 21A41.83 41.83 0 008.06 47.8v-.04zM50 98a47.89 47.89 0 01-33.93-14.07l4.28-4.28a2 2 0 00.08-2.74 40 40 0 0126.32-66.78c1.09-.09 2.17-.13 3.25-.13a39.77 39.77 0 0123.76 7.86 1 1 0 001.32-.12 1 1 0 00-.13-1.47A41.62 41.62 0 0051 8V2h1.43l1.18.09c.37 0 .75.05 1.12.09.63.06 1.26.14 1.89.23h.36A48.6 48.6 0 0193.63 30c.3.667.58 1.333.84 2 .06.13.11.26.16.39.21.54.42 1.09.62 1.64l.25.75c.15.44.3.89.44 1.34.14.45.21.73.31 1.1.1.37.2.71.29 1.06.09.35.23.95.33 1.43l.18.8c.12.59.22 1.18.32 1.78 0 .17.06.34.08.51.12.74.21 1.48.29 2.24v.1c.08.8.15 1.61.19 2.42v1.47h-6a41.6 41.6 0 00-7.67-23.19 1 1 0 00-1.65.06 1 1 0 000 1.09 39.92 39.92 0 01-3.12 49.93 2 2 0 00.08 2.74l4.28 4.28A47.89 47.89 0 0150 98zm-3.61-33.21a6 6 0 008.4-1.18c1.67-2.22 26.48-43.16 27.54-44.9a1 1 0 00-.948-1.515 1 1 0 00-.642.315c-1.39 1.5-33.86 36.66-35.53 38.88a6 6 0 001.18 8.4zm.42-7.2c1.07-1.42 16.68-18.42 28.64-31.4-9.16 15.09-21.19 34.8-22.26 36.22a4 4 0 11-6.38-4.82zM60 80a1 1 0 01-1 1H41a1 1 0 010-2h18a1 1 0 011 1z" fill="url(#paint0_linear_135_10)"/><defs><linearGradient id="paint0_linear_135_10" x1="25" y1="6.7" x2="75" y2="93.31" gradientUnits="userSpaceOnUse"><stop stop-color="#26E8D2"/><stop offset="1" stop-color="#4E32E7"/></linearGradient></defs></svg>