<svg width="240" height="108" viewBox="0 0 240 108" fill="none" xmlns="http://www.w3.org/2000/svg">
<path d="M6.688 83.096C5.84533 83.096 5.06667 82.9573 4.352 82.68C3.63733 82.392 3.01867 81.992 2.496 81.48C1.97333 80.968 1.56267 80.3653 1.264 79.672C0.976 78.9787 0.832 78.2213 0.832 77.4C0.832 76.5787 0.976 75.8213 1.264 75.128C1.56267 74.4347 1.97333 73.832 2.496 73.32C3.02933 72.808 3.65333 72.4133 4.368 72.136C5.08267 71.848 5.86133 71.704 6.704 71.704C7.51467 71.704 8.27733 71.8427 8.992 72.12C9.70667 72.3867 10.3093 72.792 10.8 73.336L10.048 74.088C9.58933 73.6187 9.08267 73.2827 8.528 73.08C7.97333 72.8667 7.376 72.76 6.736 72.76C6.064 72.76 5.44 72.8773 4.864 73.112C4.288 73.336 3.78667 73.6613 3.36 74.088C2.93333 74.504 2.59733 74.9947 2.352 75.56C2.11733 76.1147 2 76.728 2 77.4C2 78.072 2.11733 78.6907 2.352 79.256C2.59733 79.8107 2.93333 80.3013 3.36 80.728C3.78667 81.144 4.288 81.4693 4.864 81.704C5.44 81.928 6.064 82.04 6.736 82.04C7.376 82.04 7.97333 81.9333 8.528 81.72C9.08267 81.5067 9.58933 81.1653 10.048 80.696L10.8 81.448C10.3093 81.992 9.70667 82.4027 8.992 82.68C8.27733 82.9573 7.50933 83.096 6.688 83.096ZM13.084 83V74.6H14.172V76.888L14.06 76.488C14.2947 75.848 14.6893 75.3627 15.244 75.032C15.7987 74.6907 16.4867 74.52 17.308 74.52V75.624C17.2653 75.624 17.2227 75.624 17.18 75.624C17.1373 75.6133 17.0947 75.608 17.052 75.608C16.1667 75.608 15.4733 75.88 14.972 76.424C14.4707 76.9573 14.22 77.72 14.22 78.712V83H13.084ZM19.8043 86.184C19.4096 86.184 19.0309 86.12 18.6683 85.992C18.3163 85.864 18.0122 85.672 17.7562 85.416L18.2843 84.568C18.4976 84.7707 18.7269 84.9253 18.9723 85.032C19.2283 85.1493 19.5109 85.208 19.8203 85.208C20.1936 85.208 20.5136 85.1013 20.7803 84.888C21.0576 84.6853 21.3189 84.3227 21.5643 83.8L22.1083 82.568L22.2363 82.392L25.6923 74.6H26.8123L22.6043 84.008C22.3696 84.552 22.1083 84.984 21.8203 85.304C21.5429 85.624 21.2389 85.848 20.9083 85.976C20.5776 86.1147 20.2096 86.184 19.8043 86.184ZM22.0443 83.24L18.1723 74.6H19.3563L22.7803 82.312L22.0443 83.24ZM32.7481 83.08C32.0228 83.08 31.3668 82.9147 30.7801 82.584C30.1935 82.2427 29.7241 81.7573 29.3721 81.128C29.0308 80.488 28.8601 79.7093 28.8601 78.792C28.8601 77.8747 29.0308 77.1013 29.3721 76.472C29.7135 75.832 30.1775 75.3467 30.7641 75.016C31.3508 74.6853 32.0121 74.52 32.7481 74.52C33.5481 74.52 34.2628 74.7013 34.8921 75.064C35.5321 75.416 36.0335 75.9173 36.3961 76.568C36.7588 77.208 36.9401 77.9493 36.9401 78.792C36.9401 79.6453 36.7588 80.392 36.3961 81.032C36.0335 81.672 35.5321 82.1733 34.8921 82.536C34.2628 82.8987 33.5481 83.08 32.7481 83.08ZM28.4121 86.104V74.6H29.5001V77.128L29.3881 78.808L29.5481 80.504V86.104H28.4121ZM32.6681 82.072C33.2655 82.072 33.7988 81.9387 34.2681 81.672C34.7375 81.3947 35.1108 81.0107 35.3881 80.52C35.6655 80.0187 35.8041 79.4427 35.8041 78.792C35.8041 78.1413 35.6655 77.5707 35.3881 77.08C35.1108 76.5893 34.7375 76.2053 34.2681 75.928C33.7988 75.6507 33.2655 75.512 32.6681 75.512C32.0708 75.512 31.5321 75.6507 31.0521 75.928C30.5828 76.2053 30.2095 76.5893 29.9321 77.08C29.6655 77.5707 29.5321 78.1413 29.5321 78.792C29.5321 79.4427 29.6655 80.0187 29.9321 80.52C30.2095 81.0107 30.5828 81.3947 31.0521 81.672C31.5321 81.9387 32.0708 82.072 32.6681 82.072ZM41.9119 83.08C41.1225 83.08 40.5145 82.8667 40.0879 82.44C39.6612 82.0133 39.4479 81.4107 39.4479 80.632V72.744H40.5839V80.568C40.5839 81.0587 40.7065 81.4373 40.9519 81.704C41.2079 81.9707 41.5705 82.104 42.0399 82.104C42.5412 82.104 42.9572 81.96 43.2879 81.672L43.6879 82.488C43.4639 82.6907 43.1919 82.84 42.8719 82.936C42.5625 83.032 42.2425 83.08 41.9119 83.08ZM37.9439 75.544V74.6H43.1439V75.544H37.9439ZM48.883 83.08C48.0723 83.08 47.3417 82.8987 46.691 82.536C46.051 82.1627 45.5443 81.656 45.171 81.016C44.7977 80.3653 44.611 79.624 44.611 78.792C44.611 77.9493 44.7977 77.208 45.171 76.568C45.5443 75.928 46.051 75.4267 46.691 75.064C47.331 74.7013 48.0617 74.52 48.883 74.52C49.715 74.52 50.451 74.7013 51.091 75.064C51.7417 75.4267 52.2483 75.928 52.611 76.568C52.9843 77.208 53.171 77.9493 53.171 78.792C53.171 79.624 52.9843 80.3653 52.611 81.016C52.2483 81.656 51.7417 82.1627 51.091 82.536C50.4403 82.8987 49.7043 83.08 48.883 83.08ZM48.883 82.072C49.491 82.072 50.0297 81.9387 50.499 81.672C50.9683 81.3947 51.3363 81.0107 51.603 80.52C51.8803 80.0187 52.019 79.4427 52.019 78.792C52.019 78.1307 51.8803 77.5547 51.603 77.064C51.3363 76.5733 50.9683 76.1947 50.499 75.928C50.0297 75.6507 49.4963 75.512 48.899 75.512C48.3017 75.512 47.7683 75.6507 47.299 75.928C46.8297 76.1947 46.4563 76.5733 46.179 77.064C45.9017 77.5547 45.763 78.1307 45.763 78.792C45.763 79.4427 45.9017 80.0187 46.179 80.52C46.4563 81.0107 46.8297 81.3947 47.299 81.672C47.7683 81.9387 48.2963 82.072 48.883 82.072ZM55.0225 79.16V78.168H59.2145V79.16H55.0225ZM66.0919 83.08C65.3559 83.08 64.6945 82.9147 64.1079 82.584C63.5212 82.2427 63.0572 81.752 62.7159 81.112C62.3745 80.472 62.2039 79.6987 62.2039 78.792C62.2039 77.8747 62.3745 77.1013 62.7159 76.472C63.0679 75.832 63.5372 75.3467 64.1239 75.016C64.7105 74.6853 65.3665 74.52 66.0919 74.52C66.8919 74.52 67.6065 74.7013 68.2359 75.064C68.8759 75.416 69.3772 75.912 69.7399 76.552C70.1025 77.192 70.2839 77.9387 70.2839 78.792C70.2839 79.6347 70.1025 80.3813 69.7399 81.032C69.3772 81.672 68.8759 82.1733 68.2359 82.536C67.6065 82.8987 66.8919 83.08 66.0919 83.08ZM61.7559 83V71.128H62.8919V77.08L62.7319 78.776L62.8439 80.472V83H61.7559ZM66.0119 82.072C66.6092 82.072 67.1425 81.9387 67.6119 81.672C68.0812 81.3947 68.4545 81.0107 68.7319 80.52C69.0092 80.0187 69.1479 79.4427 69.1479 78.792C69.1479 78.1307 69.0092 77.5547 68.7319 77.064C68.4545 76.5733 68.0812 76.1947 67.6119 75.928C67.1425 75.6507 66.6092 75.512 66.0119 75.512C65.4145 75.512 64.8759 75.6507 64.3959 75.928C63.9265 76.1947 63.5532 76.5733 63.2759 77.064C63.0092 77.5547 62.8759 78.1307 62.8759 78.792C62.8759 79.4427 63.0092 80.0187 63.2759 80.52C63.5532 81.0107 63.9265 81.3947 64.3959 81.672C64.8759 81.9387 65.4145 82.072 66.0119 82.072ZM76.0236 83.08C75.213 83.08 74.4823 82.8987 73.8316 82.536C73.1916 82.1627 72.685 81.656 72.3116 81.016C71.9383 80.3653 71.7516 79.624 71.7516 78.792C71.7516 77.9493 71.9383 77.208 72.3116 76.568C72.685 75.928 73.1916 75.4267 73.8316 75.064C74.4716 74.7013 75.2023 74.52 76.0236 74.52C76.8556 74.52 77.5916 74.7013 78.2316 75.064C78.8823 75.4267 79.389 75.928 79.7516 76.568C80.125 77.208 80.3116 77.9493 80.3116 78.792C80.3116 79.624 80.125 80.3653 79.7516 81.016C79.389 81.656 78.8823 82.1627 78.2316 82.536C77.581 82.8987 76.845 83.08 76.0236 83.08ZM76.0236 82.072C76.6316 82.072 77.1703 81.9387 77.6396 81.672C78.109 81.3947 78.477 81.0107 78.7436 80.52C79.021 80.0187 79.1596 79.4427 79.1596 78.792C79.1596 78.1307 79.021 77.5547 78.7436 77.064C78.477 76.5733 78.109 76.1947 77.6396 75.928C77.1703 75.6507 76.637 75.512 76.0396 75.512C75.4423 75.512 74.909 75.6507 74.4396 75.928C73.9703 76.1947 73.597 76.5733 73.3196 77.064C73.0423 77.5547 72.9036 78.1307 72.9036 78.792C72.9036 79.4427 73.0423 80.0187 73.3196 80.52C73.597 81.0107 73.9703 81.3947 74.4396 81.672C74.909 81.9387 75.437 82.072 76.0236 82.072ZM85.2869 83.08C84.4975 83.08 83.8895 82.8667 83.4629 82.44C83.0362 82.0133 82.8229 81.4107 82.8229 80.632V72.744H83.9589V80.568C83.9589 81.0587 84.0815 81.4373 84.3269 81.704C84.5829 81.9707 84.9455 82.104 85.4149 82.104C85.9162 82.104 86.3322 81.96 86.6629 81.672L87.0629 82.488C86.8389 82.6907 86.5669 82.84 86.2469 82.936C85.9375 83.032 85.6175 83.08 85.2869 83.08ZM81.3189 75.544V74.6H86.5189V75.544H81.3189ZM99.1104 82.456V75.592H95.0624L94.9664 77.464C94.945 78.0293 94.9077 78.584 94.8544 79.128C94.8117 79.672 94.7317 80.1733 94.6144 80.632C94.5077 81.08 94.353 81.448 94.1504 81.736C93.9477 82.0133 93.6864 82.1733 93.3664 82.216L92.2304 82.008C92.561 82.0187 92.833 81.9013 93.0464 81.656C93.2597 81.4 93.425 81.0533 93.5424 80.616C93.6597 80.1787 93.745 79.6827 93.7984 79.128C93.8517 78.5627 93.8944 77.9867 93.9264 77.4L94.0384 74.6H100.246V82.456H99.1104ZM91.8784 85.032V82.008H101.558V85.032H100.486V83H92.9504V85.032H91.8784ZM102.236 82.984L102.316 82.008C102.391 82.0187 102.46 82.0347 102.524 82.056C102.599 82.0667 102.663 82.072 102.716 82.072C103.058 82.072 103.33 81.944 103.532 81.688C103.746 81.432 103.906 81.0907 104.012 80.664C104.119 80.2373 104.194 79.7573 104.236 79.224C104.279 78.68 104.316 78.136 104.348 77.592L104.492 74.6H110.652V83H109.516V75.256L109.804 75.592H105.228L105.5 75.24L105.372 77.672C105.34 78.3973 105.282 79.0907 105.196 79.752C105.122 80.4133 104.999 80.9947 104.828 81.496C104.668 81.9973 104.444 82.392 104.156 82.68C103.868 82.9573 103.5 83.096 103.052 83.096C102.924 83.096 102.791 83.0853 102.652 83.064C102.524 83.0427 102.386 83.016 102.236 82.984ZM119.306 83V79.976L119.514 80.216H116.666C115.588 80.216 114.746 79.9813 114.138 79.512C113.53 79.0427 113.226 78.36 113.226 77.464C113.226 76.504 113.551 75.7893 114.202 75.32C114.852 74.84 115.722 74.6 116.81 74.6H120.346V83H119.306ZM113.162 83L115.466 79.768H116.65L114.394 83H113.162ZM119.306 79.64V75.256L119.514 75.592H116.842C116.063 75.592 115.455 75.7413 115.018 76.04C114.591 76.3387 114.378 76.824 114.378 77.496C114.378 78.744 115.172 79.368 116.762 79.368H119.514L119.306 79.64ZM3.216 104V96.288L3.504 96.592H0.032V95.6H7.536V96.592H4.064L4.352 96.288V104H3.216ZM12.2439 104.08C11.4332 104.08 10.7025 103.899 10.0519 103.536C9.41188 103.163 8.90521 102.656 8.53188 102.016C8.15854 101.365 7.97188 100.624 7.97188 99.792C7.97188 98.9493 8.15854 98.208 8.53188 97.568C8.90521 96.928 9.41188 96.4267 10.0519 96.064C10.6919 95.7013 11.4225 95.52 12.2439 95.52C13.0759 95.52 13.8119 95.7013 14.4519 96.064C15.1025 96.4267 15.6092 96.928 15.9719 97.568C16.3452 98.208 16.5319 98.9493 16.5319 99.792C16.5319 100.624 16.3452 101.365 15.9719 102.016C15.6092 102.656 15.1025 103.163 14.4519 103.536C13.8012 103.899 13.0652 104.08 12.2439 104.08ZM12.2439 103.072C12.8519 103.072 13.3905 102.939 13.8599 102.672C14.3292 102.395 14.6972 102.011 14.9639 101.52C15.2412 101.019 15.3799 100.443 15.3799 99.792C15.3799 99.1307 15.2412 98.5547 14.9639 98.064C14.6972 97.5733 14.3292 97.1947 13.8599 96.928C13.3905 96.6507 12.8572 96.512 12.2599 96.512C11.6625 96.512 11.1292 96.6507 10.6599 96.928C10.1905 97.1947 9.81721 97.5733 9.53988 98.064C9.26254 98.5547 9.12388 99.1307 9.12388 99.792C9.12388 100.443 9.26254 101.019 9.53988 101.52C9.81721 102.011 10.1905 102.395 10.6599 102.672C11.1292 102.939 11.6572 103.072 12.2439 103.072ZM23.2958 104.08C22.5704 104.08 21.9144 103.915 21.3278 103.584C20.7411 103.243 20.2718 102.757 19.9198 102.128C19.5784 101.488 19.4078 100.709 19.4078 99.792C19.4078 98.8747 19.5784 98.1013 19.9198 97.472C20.2611 96.832 20.7251 96.3467 21.3118 96.016C21.8984 95.6853 22.5598 95.52 23.2958 95.52C24.0958 95.52 24.8104 95.7013 25.4398 96.064C26.0798 96.416 26.5811 96.9173 26.9438 97.568C27.3064 98.208 27.4878 98.9493 27.4878 99.792C27.4878 100.645 27.3064 101.392 26.9438 102.032C26.5811 102.672 26.0798 103.173 25.4398 103.536C24.8104 103.899 24.0958 104.08 23.2958 104.08ZM18.9598 107.104V95.6H20.0478V98.128L19.9358 99.808L20.0958 101.504V107.104H18.9598ZM23.2158 103.072C23.8131 103.072 24.3464 102.939 24.8158 102.672C25.2851 102.395 25.6584 102.011 25.9358 101.52C26.2131 101.019 26.3518 100.443 26.3518 99.792C26.3518 99.1413 26.2131 98.5707 25.9358 98.08C25.6584 97.5893 25.2851 97.2053 24.8158 96.928C24.3464 96.6507 23.8131 96.512 23.2158 96.512C22.6184 96.512 22.0798 96.6507 21.5998 96.928C21.1304 97.2053 20.7571 97.5893 20.4798 98.08C20.2131 98.5707 20.0798 99.1413 20.0798 99.792C20.0798 100.443 20.2131 101.019 20.4798 101.52C20.7571 102.011 21.1304 102.395 21.5998 102.672C22.0798 102.939 22.6184 103.072 23.2158 103.072ZM29.9285 104V95.6H35.8805V96.592H30.7765L31.0645 96.304V104H29.9285ZM40.5876 104.08C39.777 104.08 39.0463 103.899 38.3956 103.536C37.7556 103.163 37.249 102.656 36.8756 102.016C36.5023 101.365 36.3156 100.624 36.3156 99.792C36.3156 98.9493 36.5023 98.208 36.8756 97.568C37.249 96.928 37.7556 96.4267 38.3956 96.064C39.0356 95.7013 39.7663 95.52 40.5876 95.52C41.4196 95.52 42.1556 95.7013 42.7956 96.064C43.4463 96.4267 43.953 96.928 44.3156 97.568C44.689 98.208 44.8756 98.9493 44.8756 99.792C44.8756 100.624 44.689 101.365 44.3156 102.016C43.953 102.656 43.4463 103.163 42.7956 103.536C42.145 103.899 41.409 104.08 40.5876 104.08ZM40.5876 103.072C41.1956 103.072 41.7343 102.939 42.2036 102.672C42.673 102.395 43.041 102.011 43.3076 101.52C43.585 101.019 43.7236 100.443 43.7236 99.792C43.7236 99.1307 43.585 98.5547 43.3076 98.064C43.041 97.5733 42.673 97.1947 42.2036 96.928C41.7343 96.6507 41.201 96.512 40.6036 96.512C40.0063 96.512 39.473 96.6507 39.0036 96.928C38.5343 97.1947 38.161 97.5733 37.8836 98.064C37.6063 98.5547 37.4676 99.1307 37.4676 99.792C37.4676 100.443 37.6063 101.019 37.8836 101.52C38.161 102.011 38.5343 102.395 39.0036 102.672C39.473 102.939 40.001 103.072 40.5876 103.072ZM47.3035 104V95.6H51.0155C51.9648 95.6 52.7115 95.7813 53.2555 96.144C53.8102 96.5067 54.0875 97.04 54.0875 97.744C54.0875 98.4267 53.8262 98.9547 53.3035 99.328C52.7808 99.6907 52.0928 99.872 51.2395 99.872L51.4635 99.536C52.4662 99.536 53.2022 99.7227 53.6715 100.096C54.1408 100.469 54.3755 101.008 54.3755 101.712C54.3755 102.437 54.1088 103.003 53.5755 103.408C53.0528 103.803 52.2368 104 51.1275 104H47.3035ZM48.4075 103.104H51.0795C51.7942 103.104 52.3328 102.992 52.6955 102.768C53.0688 102.533 53.2555 102.16 53.2555 101.648C53.2555 101.136 53.0902 100.763 52.7595 100.528C52.4288 100.293 51.9062 100.176 51.1915 100.176H48.4075V103.104ZM48.4075 99.328H50.9355C51.5862 99.328 52.0822 99.2053 52.4235 98.96C52.7755 98.7147 52.9515 98.3573 52.9515 97.888C52.9515 97.4187 52.7755 97.0667 52.4235 96.832C52.0822 96.5973 51.5862 96.48 50.9355 96.48H48.4075V99.328ZM55.5019 103.984L55.5819 103.008C55.6565 103.019 55.7259 103.035 55.7899 103.056C55.8645 103.067 55.9285 103.072 55.9819 103.072C56.3232 103.072 56.5952 102.944 56.7979 102.688C57.0112 102.432 57.1712 102.091 57.2779 101.664C57.3845 101.237 57.4592 100.757 57.5019 100.224C57.5445 99.68 57.5819 99.136 57.6139 98.592L57.7579 95.6H63.9179V104H62.7819V96.256L63.0699 96.592H58.4939L58.7659 96.24L58.6379 98.672C58.6059 99.3973 58.5472 100.091 58.4619 100.752C58.3872 101.413 58.2645 101.995 58.0939 102.496C57.9339 102.997 57.7099 103.392 57.4219 103.68C57.1339 103.957 56.7659 104.096 56.3179 104.096C56.1899 104.096 56.0565 104.085 55.9179 104.064C55.7899 104.043 55.6512 104.016 55.5019 103.984ZM67.1473 104V95.6H68.2833V102.272L73.8993 95.6H74.9073V104H73.7713V97.312L68.1713 104H67.1473ZM82.3504 104V95.6H83.4864V99.312H88.7824V95.6H89.9184V104H88.7824V100.288H83.4864V104H82.3504ZM98.3633 104V102.144L98.3153 101.84V98.736C98.3153 98.0213 98.1126 97.472 97.7073 97.088C97.3126 96.704 96.7206 96.512 95.9313 96.512C95.3873 96.512 94.8699 96.6027 94.3793 96.784C93.8886 96.9653 93.4726 97.2053 93.1313 97.504L92.6193 96.656C93.0459 96.2933 93.5579 96.016 94.1553 95.824C94.7526 95.6213 95.3819 95.52 96.0433 95.52C97.1313 95.52 97.9686 95.792 98.5553 96.336C99.1526 96.8693 99.4513 97.6853 99.4513 98.784V104H98.3633ZM95.4673 104.08C94.8379 104.08 94.2886 103.979 93.8193 103.776C93.3606 103.563 93.0086 103.275 92.7633 102.912C92.5179 102.539 92.3953 102.112 92.3953 101.632C92.3953 101.195 92.4966 100.8 92.6993 100.448C92.9126 100.085 93.2539 99.7973 93.7233 99.584C94.2033 99.36 94.8433 99.248 95.6432 99.248H98.5393V100.096H95.6753C94.8646 100.096 94.2993 100.24 93.9793 100.528C93.6699 100.816 93.5153 101.173 93.5153 101.6C93.5153 102.08 93.7019 102.464 94.0753 102.752C94.4486 103.04 94.9713 103.184 95.6432 103.184C96.2833 103.184 96.8326 103.04 97.2913 102.752C97.7606 102.453 98.1019 102.027 98.3153 101.472L98.5713 102.256C98.3579 102.811 97.9846 103.253 97.4513 103.584C96.9286 103.915 96.2673 104.08 95.4673 104.08ZM107.927 98.224H113.847V99.248H107.927V98.224ZM108.055 104H106.871V92.8H114.551V93.824H108.055V104ZM119.899 104.08C119.088 104.08 118.357 103.899 117.707 103.536C117.067 103.163 116.56 102.656 116.187 102.016C115.813 101.365 115.627 100.624 115.627 99.792C115.627 98.9493 115.813 98.208 116.187 97.568C116.56 96.928 117.067 96.4267 117.707 96.064C118.347 95.7013 119.077 95.52 119.899 95.52C120.731 95.52 121.467 95.7013 122.107 96.064C122.757 96.4267 123.264 96.928 123.627 97.568C124 98.208 124.187 98.9493 124.187 99.792C124.187 100.624 124 101.365 123.627 102.016C123.264 102.656 122.757 103.163 122.107 103.536C121.456 103.899 120.72 104.08 119.899 104.08ZM119.899 103.072C120.507 103.072 121.045 102.939 121.515 102.672C121.984 102.395 122.352 102.011 122.619 101.52C122.896 101.019 123.035 100.443 123.035 99.792C123.035 99.1307 122.896 98.5547 122.619 98.064C122.352 97.5733 121.984 97.1947 121.515 96.928C121.045 96.6507 120.512 96.512 119.915 96.512C119.317 96.512 118.784 96.6507 118.315 96.928C117.845 97.1947 117.472 97.5733 117.195 98.064C116.917 98.5547 116.779 99.1307 116.779 99.792C116.779 100.443 116.917 101.019 117.195 101.52C117.472 102.011 117.845 102.395 118.315 102.672C118.784 102.939 119.312 103.072 119.899 103.072ZM126.506 104V95.6H127.594V97.888L127.482 97.488C127.717 96.848 128.111 96.3627 128.666 96.032C129.221 95.6907 129.909 95.52 130.73 95.52V96.624C130.687 96.624 130.645 96.624 130.602 96.624C130.559 96.6133 130.517 96.608 130.474 96.608C129.589 96.608 128.895 96.88 128.394 97.424C127.893 97.9573 127.642 98.72 127.642 99.712V104H126.506ZM136.293 104.08C135.418 104.08 134.65 103.899 133.989 103.536C133.327 103.163 132.81 102.656 132.437 102.016C132.063 101.365 131.877 100.624 131.877 99.792C131.877 98.96 132.053 98.224 132.405 97.584C132.767 96.944 133.258 96.4427 133.877 96.08C134.506 95.7067 135.21 95.52 135.989 95.52C136.778 95.52 137.477 95.7013 138.085 96.064C138.703 96.416 139.189 96.9173 139.541 97.568C139.893 98.208 140.069 98.9493 140.069 99.792C140.069 99.8453 140.063 99.904 140.053 99.968C140.053 100.021 140.053 100.08 140.053 100.144H132.741V99.296H139.445L138.997 99.632C138.997 99.024 138.863 98.4853 138.597 98.016C138.341 97.536 137.989 97.1627 137.541 96.896C137.093 96.6293 136.575 96.496 135.989 96.496C135.413 96.496 134.895 96.6293 134.437 96.896C133.978 97.1627 133.621 97.536 133.365 98.016C133.109 98.496 132.981 99.0453 132.981 99.664V99.84C132.981 100.48 133.119 101.045 133.397 101.536C133.685 102.016 134.079 102.395 134.581 102.672C135.093 102.939 135.674 103.072 136.325 103.072C136.837 103.072 137.311 102.981 137.749 102.8C138.197 102.619 138.581 102.341 138.901 101.968L139.541 102.704C139.167 103.152 138.698 103.493 138.133 103.728C137.578 103.963 136.965 104.08 136.293 104.08ZM140.867 104L144.419 99.392L144.403 99.952L141.027 95.6H142.307L145.075 99.2L144.595 99.184L147.363 95.6H148.611L145.203 100L145.219 99.392L148.803 104H147.507L144.579 100.16L145.027 100.224L142.147 104H140.867Z" fill="white"/>
<g clip-path="url(#clip0_178_2)">
<path d="M74.7059 39.5021H24.2912C21.6 39.5021 19.4034 39.0214 17.7629 38.0745C16.1224 37.1276 14.7922 35.9483 13.8366 34.5803C12.8806 33.2186 12.213 31.6786 11.8741 30.0535C11.5434 28.5576 11.3679 27.032 11.3502 25.5006C11.3681 23.9687 11.5436 22.4426 11.8741 20.9462C12.2128 19.3206 12.8805 17.7801 13.8366 16.418C14.7922 15.0528 16.1122 13.8779 17.7629 12.9325C19.4137 11.987 21.6044 11.5034 24.2912 11.5034H74.7059C75.4679 11.5154 76.2245 11.3728 76.9291 11.0844C77.6337 10.7959 78.2715 10.3677 78.8034 9.82602C79.3493 9.29804 79.7808 8.66509 80.0717 7.9659C80.3626 7.26671 80.5067 6.51597 80.4951 5.75962C80.506 5.00336 80.3616 4.25282 80.0708 3.55372C79.7799 2.85463 79.3487 2.2216 78.8034 1.69321C78.2725 1.14909 77.6352 0.718249 76.9306 0.427076C76.2261 0.135902 75.469 -0.00947701 74.7059 -0.000158612H21.7229C18.3571 -0.000158612 15.2839 0.789886 12.6205 2.34674C9.96362 3.89425 7.6371 5.94211 5.77171 8.37519C3.88361 10.8415 2.43035 13.6076 1.47366 16.5559C0.511465 19.442 0.0141315 22.4607 0 25.5006C0.022753 28.5136 0.498733 31.5063 1.4122 34.3799C2.31122 37.3267 3.68456 40.1099 5.47902 42.6216C7.1993 45.033 9.38376 47.0824 11.9063 48.6515C14.4161 50.2112 17.321 51.0013 20.5405 51.0013H74.7015C76.2377 51.0013 77.7109 50.3957 78.7972 49.3177C79.8834 48.2397 80.4937 46.7776 80.4937 45.2531C80.4937 43.7286 79.8834 42.2666 78.7972 41.1886C77.7109 40.1106 76.2377 39.505 74.7015 39.505L74.7059 39.5021Z" fill="white"/>
<path d="M78.8064 21.4285C78.2739 20.8875 77.636 20.4599 76.9315 20.1718C76.227 19.8836 75.4707 19.741 74.7088 19.7526H25.579C24.8175 19.7495 24.0629 19.8961 23.3588 20.1839C22.6547 20.4717 22.0149 20.8949 21.4764 21.4293C20.938 21.9637 20.5114 22.5986 20.2214 23.2974C19.9314 23.9962 19.7837 24.745 19.7868 25.5007C19.7841 26.2563 19.9321 27.005 20.2222 27.7036C20.5124 28.4022 20.9389 29.037 21.4773 29.5713C22.0157 30.1056 22.6553 30.5289 23.3593 30.8168C24.0632 31.1047 24.8176 31.2516 25.579 31.2489H74.7059C75.4673 31.2516 76.2217 31.1047 76.9256 30.8168C77.6296 30.5289 78.2692 30.1056 78.8076 29.5713C79.346 29.037 79.7725 28.4022 80.0627 27.7036C80.3528 27.005 80.5008 26.2563 80.4981 25.5007C80.5089 24.7446 80.3646 23.9942 80.074 23.2952C79.7834 22.5961 79.3526 21.963 78.8078 21.4343L78.8064 21.4285Z" fill="white"/>
<path d="M164.529 1.61639L164.517 1.60332C164.005 1.08706 163.393 0.679265 162.718 0.404663C162.043 0.130061 161.319 -0.00563334 160.589 0.00580386C158.899 0.00580386 157.462 0.698545 156.313 2.06805L130.001 36.7284C129.455 37.4245 128.844 38.0678 128.176 38.6497C126.678 39.9975 125.094 39.9989 123.594 38.6497C122.912 38.0467 122.265 37.4051 121.657 36.7284L95.5756 2.17843C94.5 0.726139 93.0219 -5.28974e-06 91.1854 -5.28974e-06C90.4549 -0.01146 89.7298 0.124931 89.0542 0.400844C88.3786 0.676756 87.7668 1.0864 87.2561 1.60477C86.7354 2.11217 86.3242 2.7194 86.0474 3.38951C85.7707 4.05962 85.6342 4.77861 85.6463 5.50271C85.6398 6.23777 85.7983 6.96505 86.1102 7.63177C86.4073 8.26451 86.7903 8.85383 87.2488 9.38323L114.454 45.4915C116.557 48.1355 119.524 49.9692 122.843 50.6769C126.162 51.3846 129.626 50.9221 132.638 49.3691C134.637 48.3441 136.392 46.9084 137.788 45.1574L164.845 8.95916L164.968 8.84007C165.739 7.99629 166.13 6.87367 166.13 5.49981C166.141 4.77873 166.005 4.06284 165.73 3.39537C165.455 2.72791 165.046 2.12273 164.529 1.61639Z" fill="white"/>
<path d="M239.538 43.3697C239.238 42.7376 238.856 42.1481 238.399 41.6168L211.199 5.5187C209.894 3.78315 208.18 2.39224 206.207 1.46827C204.135 0.477984 201.861 -0.0221905 199.562 0.00704015C197.263 0.0362708 195.002 0.594111 192.957 1.63674C190.851 2.71869 189.136 4.13758 187.86 5.84837L160.668 42.1599C159.896 43.0037 159.498 44.1263 159.498 45.5002C159.495 46.2236 159.636 46.9403 159.914 47.6092C160.192 48.278 160.6 48.8857 161.116 49.3972C161.631 49.9087 162.243 50.3139 162.917 50.5895C163.591 50.8651 164.313 51.0056 165.042 51.0029C166.731 51.0029 168.168 50.3102 169.317 48.9421L195.638 14.2716C196.184 13.5759 196.795 12.933 197.463 12.3517C198.961 11.0054 200.545 11.0069 202.043 12.3517C202.724 12.957 203.371 13.5984 203.981 14.2731L230.063 48.8216C231.136 50.2739 232.614 51 234.454 51C235.183 51.0031 235.905 50.8628 236.579 50.5874C237.253 50.3119 237.866 49.9067 238.381 49.3951C238.897 48.8836 239.305 48.2757 239.583 47.6067C239.86 46.9377 240.002 46.2208 239.999 45.4973C240.005 44.763 239.848 44.0364 239.538 43.3697Z" fill="white"/>
<path d="M199.752 42.7103C202.945 42.7103 205.534 40.1414 205.534 36.9723C205.534 33.8033 202.945 31.2344 199.752 31.2344C196.558 31.2344 193.97 33.8033 193.97 36.9723C193.97 40.1414 196.558 42.7103 199.752 42.7103Z" fill="white"/>
</g>
<defs>
<clipPath id="clip0_178_2">
<rect width="240" height="51" fill="white"/>
</clipPath>
</defs>
</svg>
