<svg width="100" height="100" fill="none" xmlns="http://www.w3.org/2000/svg"><g clip-path="url(#clip0_143_2)"><path d="M100 30.4c0-6.16-10.23-11.4-27.4-14.06L67.68 4.28a6.84 6.84 0 00-7.94-4.1 46.35 46.35 0 01-19.48 0 6.84 6.84 0 00-7.94 4.1L27.4 16.34C10.23 19 0 24.24 0 30.4s9.85 10.7 23.2 13.29l-13 10.43a1 1 0 00-.02 1.54L20.5 64.5l-5.39 4.32a.999.999 0 00-.293 1.19c.061.134.15.254.263.35l34.3 29.4a1 1 0 001.3 0l34.3-29.4a1.003 1.003 0 00.35-.78 1 1 0 00-.38-.76l-5.39-4.32 10.32-8.84a1 1 0 00.25-1.201 1 1 0 00-.27-.339l-13-10.43C90.15 41.1 100 36.52 100 30.4zM34.17 5a4.84 4.84 0 014.5-3c.38 0 .76.043 1.13.13a48.38 48.38 0 0020.4 0 4.85 4.85 0 015.63 2.91l9 22.19a2 2 0 01-.84 2.42c-5.32 3.2-14.3 5.1-24 5.1s-18.72-1.9-24-5.1a1.93 1.93 0 01-.83-2.41L34.17 5zm43.15 58.73a1 1 0 00.02 1.54l5.39 4.32-32.73 28-32.73-28 5.39-4.32a1 1 0 000-1.54l-10.32-8.84 12.52-10c2 13.05 12.24 30.6 25.11 30.6 13.07 0 23.09-17.3 25.12-30.59l12.51 10-10.28 8.83zm-50.5-19.45a151.823 151.823 0 0046.36 0C71.39 56.66 61.9 73.5 50 73.5S28.61 56.67 26.82 44.32v-.04zM50 44.1c-28.71 0-48-7.08-48-13.7 0-4.74 9.78-9.44 24.52-11.89l-3.25 8a4 4 0 001.66 4.89c5.61 3.37 15 5.38 25.07 5.38s19.46-2 25.07-5.38a4 4 0 001.66-4.89l-3.25-8C88.22 21 98 25.66 98 30.4c0 6.6-19.29 13.7-48 13.7z" fill="url(#paint0_linear_143_2)"/></g><defs><linearGradient id="paint0_linear_143_2" x1="30.84" y1="3.45" x2="77.51" y2="84.27" gradientUnits="userSpaceOnUse"><stop stop-color="#26E8D2"/><stop offset="1" stop-color="#4E32E7"/></linearGradient><clipPath id="clip0_143_2"><path fill="#fff" d="M0 0h100v100H0z"/></clipPath></defs></svg>