<svg width="240" height="51" fill="none" xmlns="http://www.w3.org/2000/svg"><g clip-path="url(#clip0_27_3)" fill="#fff"><path d="M74.706 39.502H24.29c-2.691 0-4.888-.48-6.528-1.428-1.64-.946-2.97-2.126-3.926-3.494a12.22 12.22 0 01-1.963-4.526 22.284 22.284 0 01-.524-4.553c.018-1.532.194-3.058.524-4.555a12.22 12.22 0 011.963-4.528c.955-1.365 2.275-2.54 3.926-3.486 1.65-.945 3.841-1.429 6.528-1.429h50.415a5.636 5.636 0 002.223-.419 5.6 5.6 0 001.874-1.258 5.559 5.559 0 001.269-1.86c.29-.7.435-1.45.423-2.206a5.535 5.535 0 00-1.692-4.067A5.645 5.645 0 0074.706 0H21.723c-3.366 0-6.44.79-9.102 2.347a23.587 23.587 0 00-6.85 6.028 27.34 27.34 0 00-4.297 8.18A28.701 28.701 0 000 25.502a30.057 30.057 0 001.412 8.879 28.468 28.468 0 004.067 8.242 22.476 22.476 0 006.427 6.03c2.51 1.56 5.415 2.35 8.635 2.35H74.7c1.537 0 3.01-.606 4.096-1.684a5.726 5.726 0 001.697-4.065c0-1.524-.61-2.986-1.697-4.064a5.815 5.815 0 00-4.096-1.684l.005-.003z"/><path d="M78.806 21.428a5.644 5.644 0 00-4.098-1.676H25.58a5.806 5.806 0 00-4.103 1.677 5.724 5.724 0 00-1.255 1.868 5.687 5.687 0 00-.434 2.204 5.69 5.69 0 001.69 4.07 5.81 5.81 0 004.102 1.678h49.127a5.81 5.81 0 004.102-1.678 5.69 5.69 0 001.69-4.07 5.539 5.539 0 00-.424-2.206 5.576 5.576 0 00-1.266-1.86l-.002-.006zm85.723-19.812l-.012-.013a5.399 5.399 0 00-3.928-1.597c-1.69 0-3.127.693-4.276 2.062l-26.312 34.66a14.039 14.039 0 01-1.825 1.922c-1.498 1.348-3.082 1.349-4.582 0a23.776 23.776 0 01-1.937-1.922L95.576 2.178C94.5.726 93.022 0 91.186 0a5.413 5.413 0 00-3.93 1.605 5.304 5.304 0 00-1.61 3.898 4.921 4.921 0 00.464 2.129c.297.633.68 1.222 1.139 1.751l27.205 36.109a14.609 14.609 0 008.389 5.185c3.319.708 6.783.245 9.795-1.308a15.81 15.81 0 005.15-4.212L164.845 8.96l.123-.119c.771-.844 1.162-1.966 1.162-3.34a5.311 5.311 0 00-1.601-3.884zm75.009 41.754a7.843 7.843 0 00-1.139-1.753l-27.2-36.098a13.303 13.303 0 00-4.992-4.05 14.97 14.97 0 00-13.25.168c-2.106 1.082-3.821 2.5-5.097 4.211L160.668 42.16c-.772.844-1.17 1.966-1.17 3.34-.003.724.138 1.44.416 2.11a5.52 5.52 0 003.003 2.98 5.56 5.56 0 002.125.413c1.689 0 3.126-.693 4.275-2.06l26.321-34.671a14.016 14.016 0 011.825-1.92c1.498-1.347 3.082-1.345 4.58 0a25.026 25.026 0 011.938 1.921l26.082 34.549c1.073 1.452 2.551 2.178 4.391 2.178a5.555 5.555 0 003.927-1.605 5.455 5.455 0 001.618-3.898 4.95 4.95 0 00-.461-2.127z"/><path d="M199.752 42.71c3.193 0 5.782-2.569 5.782-5.738 0-3.169-2.589-5.738-5.782-5.738-3.194 0-5.782 2.57-5.782 5.738 0 3.17 2.588 5.738 5.782 5.738z"/></g><defs><clipPath id="clip0_27_3"><path fill="#fff" d="M0 0h240v51H0z"/></clipPath></defs></svg>